Coordinates
version=1
nRows=4
nColumns=63
inDegrees=yes

Units are S.I. units (second, meters, Newtons, ...)
If the header above contains a line with 'inDegrees', this indicates whether rotational values are in degrees (yes) or radians (no).

endheader
time	pelvis_tilt	pelvis_list	pelvis_rotation	pelvis_tx	pelvis_ty	pelvis_tz	hip_flexion_r	hip_adduction_r	hip_rotation_r	knee_angle_r	knee_angle_r_beta	ankle_angle_r	subtalar_angle_r	mtp_angle_r	hip_flexion_l	hip_adduction_l	hip_rotation_l	knee_angle_l	knee_angle_l_beta	ankle_angle_l	subtalar_angle_l	mtp_angle_l	L5_S1_Flex_Ext	L5_S1_Lat_Bending	L5_S1_axial_rotation	L4_L5_Flex_Ext	L4_L5_Lat_Bending	L4_L5_axial_rotation	L3_L4_Flex_Ext	L3_L4_Lat_Bending	L3_L4_axial_rotation	L2_L3_Flex_Ext	L2_L3_Lat_Bending	L2_L3_axial_rotation	L1_L2_Flex_Ext	L1_L2_Lat_Bending	L1_L2_axial_rotation	L1_T12_Flex_Ext	L1_T12_Lat_Bending	L1_T12_axial_rotation	Abs_r3	Abs_r2	Abs_r1	Abs_t1	Abs_t2	neck_flexion	neck_bending	neck_rotation	arm_flex_r	arm_add_r	arm_rot_r	elbow_flex_r	pro_sup_r	wrist_flex_r	wrist_dev_r	arm_flex_l	arm_add_l	arm_rot_l	elbow_flex_l	pro_sup_l	wrist_flex_l	wrist_dev_l
      0.94827586	     -3.59062806	     -2.98609760	     84.25875306	      0.19994177	      0.96557549	      0.49634688	      8.27080930	     -3.91307258	      3.68671969	     17.48168172	      0.30511290	     30.69473600	     -0.14293016	      0.00000000	      4.49405532	      3.00692633	     -0.14054243	      8.17451724	      0.14267224	     25.90815158	     -8.97487882	      0.00000000	      0.01446326	     -0.53617416	      2.75316990	      0.02685972	     -0.71311163	      2.92524302	      0.02376169	     -1.30365385	      2.92524302	      0.01653006	     -1.30365385	      2.40902366	      0.01343058	     -1.09336634	      2.23695054	      0.00826431	     -0.83053377	      2.06487742	      0.10330961	     -6.06530931	     15.31230503	      0.00000000	      0.00000000	     21.36730456	    -15.69201012	     -8.35409514	      6.85668731	    -11.38855869	     40.81272435	     50.92769905	     60.13858016	     -9.23289858	      6.69172106	     26.02690138	    -10.62944611	     79.72809819	     42.59629362	     87.90288649	      0.82870919	     -4.16352283
      0.96551724	     -3.66910655	     -2.96571779	     84.41829019	      0.19982322	      0.96540868	      0.49704156	      8.43682656	     -4.03062161	      3.34545782	     17.80323804	      0.31072512	     30.86062352	      0.08380197	      0.00000000	      4.74158866	      2.98878665	     -1.42165126	      8.59086302	      0.14993885	     26.86052113	     -6.91666610	      0.00000000	     -0.00973909	     -0.54922328	      2.73921622	     -0.01808647	     -0.73046697	      2.91041723	     -0.01600036	     -1.33538150	      2.91041723	     -0.01113081	     -1.33538150	      2.39681419	     -0.00904372	     -1.11997612	      2.22561318	     -0.00556492	     -0.85074687	      2.05441216	     -0.06956538	     -6.21292364	     15.23469884	      0.00000000	      0.00000000	     21.05271096	    -15.77879545	     -8.56222822	      7.05430710	    -11.43760581	     41.22692520	     50.93850662	     59.52965217	     -9.23833508	      6.59535967	     26.72053038	    -10.73203206	     80.99067583	     42.99027645	     88.25730500	     -0.04850577	     -3.50051246
      0.98275862	     -3.75518669	     -3.07526819	     83.96302234	      0.20036299	      0.96522242	      0.49742745	      8.86858428	     -3.86462440	      4.86580868	     18.23556545	      0.31827066	     30.57633955	     -1.66748412	      0.00000000	      4.73358006	      3.10902338	     -0.86294772	      8.23206645	      0.14367666	     26.36659245	     -8.30043739	      0.00000000	      0.00328306	     -0.56077985	      2.88079854	      0.00609698	     -0.74583720	      3.06084844	      0.00539375	     -1.36348013	      3.06084844	      0.00375221	     -1.36348013	      2.52069872	      0.00304865	     -1.14354227	      2.34064881	      0.00187594	     -0.86864799	      2.16059890	      0.02345060	     -6.34365382	     16.02213722	      0.00000000	      0.00000000	     20.40356194	    -16.02765503	     -9.13070951	      6.70081504	    -11.35376065	     40.59450782	     51.13155907	     65.03355377	    -10.21622026	      7.25816981	     27.66547899	    -10.44260198	     84.27598071	     42.37700905	     88.28594235	     -3.67006699	     -6.29053355
      1.00000000	     -3.81485079	     -3.09373085	     83.76712001	      0.20043695	      0.96508311	      0.49784818	      9.12883203	     -3.88842650	      4.99893614	     18.58434039	      0.32435793	     30.72865627	     -1.74304058	      0.00000000	      4.81723918	      3.13191575	     -1.50352401	      8.33560188	      0.14548370	     26.54930655	     -7.69613727	      0.00000000	     -0.00181912	     -0.56506765	      2.92733938	     -0.00337829	     -0.75153997	      3.11029810	     -0.00298863	     -1.37390548	      3.11029810	     -0.00207907	     -1.37390548	      2.56142196	     -0.00168924	     -1.15228595	      2.37846325	     -0.00103945	     -0.87528979	      2.19550454	     -0.01299380	     -6.39215827	     16.28098345	      0.00000000	      0.00000000	     19.82321909	    -16.38764264	     -9.32673945	      6.84079157	    -11.56889457	     41.75234100	     51.22929874	     66.16456027	    -11.39409976	      7.17066860	     28.15173455	    -10.35435060	     85.63827809	     42.20962593	     88.45377077	     -4.91855032	     -7.10768297
